<svg xmlns="http://www.w3.org/2000/svg" xmlns:xlink="http://www.w3.org/1999/xlink" width="500" zoomAndPan="magnify" viewBox="0 0 375 374.999991" height="500" preserveAspectRatio="xMidYMid meet" version="1.2"><defs><clipPath id="14ca77e721"><path d="M 0 27 L 221.617188 27 L 221.617188 254 L 0 254 Z M 0 27 "/></clipPath><clipPath id="166937932f"><path d="M 30.863281 187.441406 L 185.359375 187.441406 L 185.359375 258.832031 L 30.863281 258.832031 Z M 30.863281 187.441406 "/></clipPath><clipPath id="4ac9b2cf58"><path d="M 108.019531 187.441406 L 185.175781 258.832031 L 30.863281 258.832031 Z M 108.019531 187.441406 "/></clipPath><clipPath id="5985a0ff7c"><path d="M 0.863281 0.441406 L 155.28125 0.441406 L 155.28125 71.832031 L 0.863281 71.832031 Z M 0.863281 0.441406 "/></clipPath><clipPath id="d70b591997"><path d="M 78.019531 0.441406 L 155.175781 71.832031 L 0.863281 71.832031 Z M 78.019531 0.441406 "/></clipPath><clipPath id="44c47fb8cf"><rect x="0" width="156" y="0" height="72"/></clipPath><clipPath id="72429dd990"><path d="M 0.605469 151.78125 L 369.605469 151.78125 L 369.605469 259 L 0.605469 259 Z M 0.605469 151.78125 "/></clipPath><clipPath id="87d83090a4"><path d="M 0 222.730469 L 9.4375 222.730469 L 9.4375 269.644531 L 0 269.644531 Z M 0 222.730469 "/></clipPath><clipPath id="cf881b4d7a"><path d="M 0 0.730469 L 9.4375 0.730469 L 9.4375 47.644531 L 0 47.644531 Z M 0 0.730469 "/></clipPath><clipPath id="4c4c75eaed"><rect x="0" width="10" y="0" height="48"/></clipPath><clipPath id="9a084d1683"><path d="M 88.441406 221.898438 L 128.191406 221.898438 L 128.191406 258.648438 L 88.441406 258.648438 Z M 88.441406 221.898438 "/></clipPath><clipPath id="f164773395"><path d="M 92 227 L 124 227 L 124 258.648438 L 92 258.648438 Z M 92 227 "/></clipPath></defs><g id="cd0e68812e"><rect x="0" width="375" y="0" height="374.999991" style="fill:#ffffff;fill-opacity:1;stroke:none;"/><rect x="0" width="375" y="0" height="374.999991" style="fill:#142725;fill-opacity:1;stroke:none;"/><g clip-rule="nonzero" clip-path="url(#14ca77e721)"><path style=" stroke:none;fill-rule:nonzero;fill:#c2b067;fill-opacity:1;" d="M 217.367188 245.027344 L 207.003906 245.027344 L 207.003906 129.25 C 207.015625 128.765625 206.992188 128.285156 206.925781 127.808594 C 206.859375 127.328125 206.757812 126.859375 206.613281 126.398438 C 206.46875 125.9375 206.289062 125.488281 206.074219 125.058594 C 205.855469 124.628906 205.605469 124.214844 205.320312 123.824219 C 205.035156 123.4375 204.722656 123.070312 204.378906 122.734375 C 204.03125 122.394531 203.664062 122.089844 203.265625 121.8125 C 202.871094 121.535156 202.457031 121.292969 202.019531 121.082031 C 201.582031 120.875 201.132812 120.703125 200.671875 120.570312 L 166.523438 111.847656 L 166.523438 71.351562 C 166.546875 70.421875 166.425781 69.511719 166.160156 68.617188 C 165.894531 67.726562 165.5 66.894531 164.976562 66.125 C 164.449219 65.355469 163.820312 64.6875 163.082031 64.117188 C 162.347656 63.542969 161.542969 63.101562 160.667969 62.78125 L 124.347656 51.097656 C 123.839844 50.941406 123.320312 50.890625 122.792969 50.941406 C 122.261719 50.992188 121.761719 51.140625 121.292969 51.386719 C 120.820312 51.636719 120.414062 51.960938 120.070312 52.371094 C 119.730469 52.777344 119.476562 53.234375 119.3125 53.738281 C 119.152344 54.246094 119.089844 54.761719 119.128906 55.292969 C 119.171875 55.824219 119.308594 56.324219 119.546875 56.800781 C 119.785156 57.277344 120.105469 57.691406 120.507812 58.039062 C 120.90625 58.390625 121.359375 58.652344 121.859375 58.824219 L 158.085938 70.476562 C 158.328125 70.71875 158.433594 71.011719 158.40625 71.351562 L 158.40625 109.777344 L 108.8125 97.109375 C 108.476562 97.105469 108.140625 97.070312 107.808594 96.996094 L 79.082031 96.996094 C 78.519531 97.019531 77.964844 97.097656 77.417969 97.230469 C 76.871094 97.359375 76.34375 97.542969 75.832031 97.777344 C 75.320312 98.015625 74.839844 98.296875 74.382812 98.628906 C 73.929688 98.957031 73.511719 99.328125 73.128906 99.742188 C 72.746094 100.152344 72.40625 100.597656 72.113281 101.078125 C 71.820312 101.554688 71.574219 102.058594 71.378906 102.585938 C 71.179688 103.113281 71.039062 103.652344 70.949219 104.207031 C 70.859375 104.761719 70.824219 105.320312 70.84375 105.882812 L 70.84375 175.148438 C 70.855469 175.679688 70.964844 176.1875 71.175781 176.675781 C 71.386719 177.164062 71.679688 177.59375 72.058594 177.964844 C 72.441406 178.339844 72.875 178.625 73.367188 178.824219 C 73.859375 179.027344 74.371094 179.125 74.902344 179.125 C 75.433594 179.125 75.945312 179.027344 76.4375 178.824219 C 76.929688 178.625 77.363281 178.339844 77.742188 177.964844 C 78.121094 177.59375 78.417969 177.164062 78.628906 176.675781 C 78.839844 176.1875 78.949219 175.679688 78.960938 175.148438 L 78.960938 105.882812 C 78.960938 105.371094 79.183594 105.113281 79.078125 105.113281 L 103.75 105.113281 L 103.75 245.023438 L 78.960938 245.023438 L 78.960938 191.378906 C 78.949219 190.847656 78.839844 190.339844 78.628906 189.851562 C 78.417969 189.363281 78.125 188.929688 77.746094 188.558594 C 77.363281 188.1875 76.929688 187.898438 76.4375 187.699219 C 75.945312 187.496094 75.433594 187.398438 74.902344 187.398438 C 74.371094 187.398438 73.859375 187.496094 73.367188 187.699219 C 72.875 187.898438 72.4375 188.1875 72.058594 188.558594 C 71.679688 188.929688 71.382812 189.363281 71.175781 189.851562 C 70.964844 190.339844 70.855469 190.847656 70.84375 191.378906 L 70.84375 245.023438 L 55.953125 245.023438 L 55.953125 37.601562 L 106.445312 53.871094 C 106.953125 54.023438 107.472656 54.078125 108.003906 54.027344 C 108.535156 53.980469 109.035156 53.832031 109.507812 53.585938 C 109.980469 53.339844 110.386719 53.011719 110.730469 52.605469 C 111.074219 52.195312 111.328125 51.738281 111.492188 51.234375 C 111.652344 50.726562 111.714844 50.207031 111.671875 49.675781 C 111.632812 49.144531 111.492188 48.640625 111.253906 48.167969 C 111.015625 47.691406 110.695312 47.277344 110.292969 46.929688 C 109.890625 46.578125 109.4375 46.316406 108.933594 46.148438 L 53.542969 28.300781 C 49.3125 27.871094 45.066406 27.746094 40.816406 27.933594 C 40.285156 27.945312 39.773438 28.054688 39.285156 28.265625 C 38.796875 28.472656 38.367188 28.769531 37.996094 29.148438 C 37.621094 29.527344 37.335938 29.964844 37.132812 30.457031 C 36.933594 30.949219 36.832031 31.460938 36.832031 31.992188 C 36.832031 32.523438 36.933594 33.035156 37.132812 33.527344 C 37.335938 34.019531 37.621094 34.457031 37.996094 34.835938 C 38.367188 35.214844 38.796875 35.511719 39.285156 35.71875 C 39.773438 35.929688 40.285156 36.039062 40.816406 36.050781 L 47.835938 36.050781 L 47.835938 245.027344 L 36.824219 245.027344 L 36.824219 60.929688 C 36.824219 60.664062 36.796875 60.402344 36.746094 60.140625 C 36.691406 59.878906 36.617188 59.625 36.515625 59.378906 C 36.410156 59.132812 36.285156 58.898438 36.140625 58.675781 C 35.992188 58.457031 35.824219 58.25 35.632812 58.0625 C 35.445312 57.875 35.242188 57.707031 35.019531 57.558594 C 34.796875 57.410156 34.5625 57.285156 34.316406 57.183594 C 34.070312 57.082031 33.816406 57.003906 33.554688 56.953125 C 33.296875 56.898438 33.03125 56.875 32.765625 56.875 C 32.5 56.875 32.234375 56.898438 31.972656 56.953125 C 31.710938 57.003906 31.457031 57.082031 31.210938 57.183594 C 30.964844 57.285156 30.730469 57.410156 30.511719 57.558594 C 30.289062 57.707031 30.085938 57.875 29.894531 58.0625 C 29.707031 58.25 29.539062 58.457031 29.390625 58.675781 C 29.242188 58.898438 29.117188 59.132812 29.015625 59.378906 C 28.914062 59.625 28.835938 59.878906 28.785156 60.140625 C 28.734375 60.402344 28.707031 60.664062 28.707031 60.929688 L 28.707031 245.027344 L 17.6875 245.027344 L 17.6875 36.863281 C 17.6875 36.328125 17.925781 36.050781 17.8125 36.050781 L 24.789062 36.050781 C 25.320312 36.042969 25.832031 35.933594 26.320312 35.722656 C 26.8125 35.515625 27.242188 35.21875 27.617188 34.839844 C 27.992188 34.460938 28.28125 34.023438 28.480469 33.53125 C 28.683594 33.039062 28.785156 32.523438 28.785156 31.992188 C 28.785156 31.460938 28.683594 30.945312 28.480469 30.453125 C 28.28125 29.960938 27.992188 29.523438 27.617188 29.144531 C 27.242188 28.765625 26.8125 28.46875 26.320312 28.261719 C 25.832031 28.050781 25.320312 27.941406 24.789062 27.933594 L 17.808594 27.933594 C 17.246094 27.957031 16.691406 28.039062 16.140625 28.171875 C 15.59375 28.304688 15.066406 28.488281 14.554688 28.726562 C 14.042969 28.964844 13.558594 29.246094 13.105469 29.578125 C 12.648438 29.910156 12.230469 30.285156 11.847656 30.699219 C 11.464844 31.113281 11.128906 31.5625 10.832031 32.042969 C 10.539062 32.523438 10.292969 33.027344 10.097656 33.554688 C 9.902344 34.082031 9.761719 34.625 9.671875 35.183594 C 9.585938 35.738281 9.550781 36.300781 9.570312 36.863281 L 9.570312 245.027344 L -1.75 245.027344 C -2.28125 245.035156 -2.792969 245.144531 -3.28125 245.355469 C -3.769531 245.566406 -4.199219 245.859375 -4.574219 246.238281 C -4.945312 246.617188 -5.234375 247.054688 -5.4375 247.546875 C -5.636719 248.039062 -5.738281 248.550781 -5.738281 249.082031 C -5.738281 249.617188 -5.636719 250.128906 -5.4375 250.621094 C -5.234375 251.113281 -4.945312 251.550781 -4.574219 251.929688 C -4.199219 252.308594 -3.769531 252.601562 -3.28125 252.8125 C -2.792969 253.023438 -2.28125 253.132812 -1.75 253.140625 C 49.136719 253.011719 152.363281 253.234375 202.945312 253.140625 L 217.367188 253.140625 C 217.902344 253.132812 218.414062 253.023438 218.902344 252.816406 C 219.394531 252.605469 219.824219 252.3125 220.199219 251.933594 C 220.574219 251.550781 220.863281 251.117188 221.0625 250.621094 C 221.265625 250.128906 221.367188 249.617188 221.367188 249.082031 C 221.367188 248.550781 221.265625 248.039062 221.0625 247.542969 C 220.863281 247.050781 220.574219 246.613281 220.199219 246.234375 C 219.824219 245.855469 219.394531 245.5625 218.902344 245.351562 C 218.414062 245.140625 217.902344 245.035156 217.367188 245.027344 Z M 162.476562 245.027344 L 111.867188 245.023438 L 111.867188 106.265625 L 198.59375 128.40625 C 198.8125 128.644531 198.910156 128.925781 198.886719 129.25 L 198.886719 245.027344 Z M 162.476562 245.027344 "/></g><path style=" stroke:none;fill-rule:nonzero;fill:#c2b067;fill-opacity:1;" d="M 180.679688 139.386719 C 180.410156 139.386719 180.148438 139.414062 179.886719 139.464844 C 179.625 139.515625 179.371094 139.59375 179.125 139.695312 C 178.878906 139.796875 178.644531 139.921875 178.421875 140.070312 C 178.203125 140.21875 177.996094 140.386719 177.808594 140.574219 C 177.621094 140.765625 177.453125 140.96875 177.304688 141.191406 C 177.15625 141.414062 177.03125 141.644531 176.929688 141.890625 C 176.828125 142.136719 176.75 142.390625 176.699219 142.652344 C 176.644531 142.914062 176.621094 143.179688 176.621094 143.445312 L 176.621094 155.007812 C 176.621094 155.273438 176.644531 155.539062 176.695312 155.800781 C 176.746094 156.0625 176.824219 156.316406 176.925781 156.5625 C 177.027344 156.808594 177.152344 157.042969 177.300781 157.265625 C 177.449219 157.488281 177.617188 157.695312 177.804688 157.882812 C 177.992188 158.070312 178.199219 158.242188 178.421875 158.390625 C 178.640625 158.539062 178.875 158.664062 179.121094 158.765625 C 179.371094 158.867188 179.625 158.945312 179.886719 158.996094 C 180.148438 159.050781 180.410156 159.074219 180.679688 159.074219 C 180.945312 159.074219 181.210938 159.050781 181.472656 158.996094 C 181.734375 158.945312 181.988281 158.867188 182.234375 158.765625 C 182.480469 158.664062 182.714844 158.539062 182.9375 158.390625 C 183.15625 158.242188 183.363281 158.070312 183.550781 157.882812 C 183.738281 157.695312 183.90625 157.488281 184.054688 157.265625 C 184.203125 157.042969 184.328125 156.808594 184.429688 156.5625 C 184.53125 156.316406 184.609375 156.0625 184.660156 155.800781 C 184.710938 155.539062 184.738281 155.273438 184.734375 155.007812 L 184.734375 143.445312 C 184.734375 143.179688 184.710938 142.914062 184.65625 142.652344 C 184.605469 142.390625 184.53125 142.136719 184.425781 141.890625 C 184.324219 141.644531 184.199219 141.414062 184.050781 141.191406 C 183.90625 140.96875 183.734375 140.765625 183.546875 140.574219 C 183.359375 140.386719 183.15625 140.21875 182.933594 140.070312 C 182.710938 139.921875 182.476562 139.796875 182.230469 139.695312 C 181.984375 139.59375 181.730469 139.515625 181.46875 139.464844 C 181.207031 139.414062 180.945312 139.386719 180.679688 139.386719 Z M 180.679688 139.386719 "/><path style=" stroke:none;fill-rule:nonzero;fill:#c2b067;fill-opacity:1;" d="M 155.375 135.503906 C 155.109375 135.503906 154.847656 135.53125 154.585938 135.582031 C 154.324219 135.632812 154.070312 135.710938 153.824219 135.8125 C 153.578125 135.914062 153.34375 136.039062 153.121094 136.1875 C 152.902344 136.335938 152.695312 136.503906 152.507812 136.691406 C 152.320312 136.882812 152.152344 137.085938 152.003906 137.308594 C 151.855469 137.527344 151.730469 137.761719 151.628906 138.007812 C 151.527344 138.253906 151.449219 138.507812 151.398438 138.769531 C 151.34375 139.03125 151.320312 139.296875 151.320312 139.5625 L 151.320312 151.121094 C 151.320312 151.390625 151.34375 151.652344 151.398438 151.914062 C 151.449219 152.175781 151.527344 152.429688 151.628906 152.675781 C 151.730469 152.921875 151.855469 153.15625 152.003906 153.378906 C 152.152344 153.597656 152.320312 153.804688 152.507812 153.992188 C 152.695312 154.179688 152.902344 154.347656 153.121094 154.496094 C 153.34375 154.644531 153.578125 154.769531 153.824219 154.871094 C 154.070312 154.972656 154.324219 155.050781 154.585938 155.101562 C 154.847656 155.15625 155.109375 155.179688 155.378906 155.179688 C 155.644531 155.179688 155.90625 155.15625 156.167969 155.101562 C 156.429688 155.050781 156.683594 154.972656 156.929688 154.871094 C 157.175781 154.769531 157.410156 154.644531 157.632812 154.496094 C 157.851562 154.347656 158.058594 154.179688 158.246094 153.992188 C 158.433594 153.804688 158.601562 153.597656 158.75 153.378906 C 158.898438 153.15625 159.023438 152.921875 159.125 152.675781 C 159.226562 152.429688 159.304688 152.175781 159.355469 151.914062 C 159.410156 151.652344 159.433594 151.390625 159.433594 151.121094 L 159.433594 139.5625 C 159.433594 139.296875 159.410156 139.03125 159.355469 138.769531 C 159.304688 138.507812 159.226562 138.253906 159.125 138.007812 C 159.023438 137.761719 158.898438 137.527344 158.75 137.308594 C 158.601562 137.085938 158.433594 136.878906 158.246094 136.691406 C 158.058594 136.503906 157.851562 136.335938 157.632812 136.1875 C 157.410156 136.039062 157.175781 135.914062 156.929688 135.8125 C 156.683594 135.710938 156.429688 135.632812 156.167969 135.582031 C 155.90625 135.53125 155.644531 135.503906 155.375 135.503906 Z M 155.375 135.503906 "/><path style=" stroke:none;fill-rule:nonzero;fill:#c2b067;fill-opacity:1;" d="M 130.074219 131.621094 C 129.808594 131.621094 129.546875 131.648438 129.285156 131.699219 C 129.023438 131.75 128.769531 131.828125 128.523438 131.929688 C 128.277344 132.03125 128.042969 132.15625 127.820312 132.304688 C 127.597656 132.453125 127.394531 132.621094 127.207031 132.808594 C 127.015625 132.996094 126.847656 133.203125 126.699219 133.425781 C 126.554688 133.644531 126.429688 133.878906 126.324219 134.125 C 126.222656 134.371094 126.148438 134.625 126.09375 134.886719 C 126.042969 135.148438 126.015625 135.410156 126.019531 135.679688 L 126.019531 147.238281 C 126.015625 147.507812 126.042969 147.769531 126.09375 148.03125 C 126.148438 148.292969 126.222656 148.546875 126.328125 148.792969 C 126.429688 149.039062 126.554688 149.273438 126.703125 149.492188 C 126.847656 149.714844 127.019531 149.921875 127.207031 150.109375 C 127.394531 150.296875 127.597656 150.464844 127.820312 150.613281 C 128.042969 150.761719 128.277344 150.886719 128.523438 150.988281 C 128.769531 151.089844 129.023438 151.167969 129.285156 151.21875 C 129.546875 151.269531 129.808594 151.296875 130.074219 151.296875 C 130.339844 151.296875 130.605469 151.269531 130.867188 151.21875 C 131.128906 151.167969 131.382812 151.089844 131.628906 150.988281 C 131.875 150.886719 132.109375 150.761719 132.328125 150.613281 C 132.550781 150.464844 132.757812 150.296875 132.945312 150.109375 C 133.132812 149.921875 133.300781 149.714844 133.449219 149.492188 C 133.597656 149.273438 133.722656 149.039062 133.824219 148.792969 C 133.925781 148.546875 134.003906 148.292969 134.054688 148.03125 C 134.105469 147.769531 134.132812 147.507812 134.132812 147.238281 L 134.132812 135.679688 C 134.132812 135.410156 134.105469 135.148438 134.054688 134.886719 C 134.003906 134.625 133.925781 134.371094 133.824219 134.125 C 133.722656 133.878906 133.597656 133.644531 133.449219 133.425781 C 133.300781 133.203125 133.132812 132.996094 132.945312 132.808594 C 132.757812 132.621094 132.550781 132.453125 132.328125 132.304688 C 132.109375 132.15625 131.875 132.03125 131.628906 131.929688 C 131.382812 131.828125 131.128906 131.75 130.867188 131.699219 C 130.605469 131.648438 130.34375 131.621094 130.074219 131.621094 Z M 130.074219 131.621094 "/><path style=" stroke:none;fill-rule:nonzero;fill:#c2b067;fill-opacity:1;" d="M 180.679688 173.410156 C 180.410156 173.410156 180.148438 173.433594 179.886719 173.488281 C 179.625 173.539062 179.371094 173.617188 179.125 173.71875 C 178.878906 173.820312 178.644531 173.945312 178.421875 174.09375 C 178.203125 174.242188 177.996094 174.410156 177.808594 174.597656 C 177.621094 174.785156 177.453125 174.992188 177.304688 175.210938 C 177.15625 175.433594 177.03125 175.667969 176.929688 175.914062 C 176.828125 176.160156 176.75 176.414062 176.699219 176.675781 C 176.644531 176.9375 176.621094 177.199219 176.621094 177.464844 L 176.621094 189.027344 C 176.621094 189.292969 176.644531 189.558594 176.695312 189.820312 C 176.746094 190.082031 176.824219 190.335938 176.925781 190.582031 C 177.027344 190.832031 177.152344 191.066406 177.300781 191.289062 C 177.449219 191.507812 177.617188 191.714844 177.804688 191.902344 C 177.992188 192.09375 178.199219 192.261719 178.421875 192.410156 C 178.640625 192.558594 178.875 192.683594 179.121094 192.785156 C 179.371094 192.890625 179.625 192.964844 179.886719 193.019531 C 180.148438 193.070312 180.410156 193.097656 180.679688 193.097656 C 180.945312 193.097656 181.210938 193.070312 181.472656 193.019531 C 181.734375 192.964844 181.988281 192.890625 182.234375 192.785156 C 182.480469 192.683594 182.714844 192.558594 182.9375 192.410156 C 183.15625 192.261719 183.363281 192.09375 183.550781 191.902344 C 183.738281 191.714844 183.90625 191.507812 184.054688 191.289062 C 184.203125 191.066406 184.328125 190.832031 184.429688 190.582031 C 184.53125 190.335938 184.609375 190.082031 184.660156 189.820312 C 184.710938 189.558594 184.738281 189.292969 184.734375 189.027344 L 184.734375 177.464844 C 184.734375 177.199219 184.710938 176.9375 184.65625 176.675781 C 184.605469 176.414062 184.527344 176.160156 184.425781 175.914062 C 184.324219 175.667969 184.199219 175.433594 184.050781 175.210938 C 183.90625 174.992188 183.734375 174.785156 183.546875 174.597656 C 183.359375 174.410156 183.15625 174.242188 182.933594 174.09375 C 182.710938 173.945312 182.476562 173.820312 182.230469 173.71875 C 181.984375 173.617188 181.730469 173.539062 181.46875 173.488281 C 181.207031 173.433594 180.945312 173.410156 180.679688 173.410156 Z M 180.679688 173.410156 "/><path style=" stroke:none;fill-rule:nonzero;fill:#c2b067;fill-opacity:1;" d="M 155.375 169.527344 C 155.109375 169.523438 154.847656 169.550781 154.585938 169.601562 C 154.324219 169.65625 154.070312 169.730469 153.824219 169.835938 C 153.578125 169.9375 153.34375 170.0625 153.121094 170.210938 C 152.902344 170.355469 152.695312 170.523438 152.507812 170.714844 C 152.320312 170.902344 152.152344 171.105469 152.003906 171.328125 C 151.855469 171.550781 151.730469 171.785156 151.628906 172.03125 C 151.527344 172.277344 151.449219 172.53125 151.398438 172.792969 C 151.34375 173.054688 151.320312 173.316406 151.320312 173.582031 L 151.320312 185.144531 C 151.320312 185.410156 151.34375 185.675781 151.398438 185.9375 C 151.449219 186.195312 151.527344 186.449219 151.628906 186.695312 C 151.730469 186.941406 151.855469 187.175781 152.003906 187.398438 C 152.152344 187.621094 152.320312 187.824219 152.507812 188.011719 C 152.695312 188.203125 152.902344 188.371094 153.121094 188.519531 C 153.34375 188.664062 153.578125 188.789062 153.824219 188.894531 C 154.070312 188.996094 154.324219 189.070312 154.585938 189.125 C 154.847656 189.175781 155.109375 189.203125 155.378906 189.203125 C 155.644531 189.203125 155.90625 189.175781 156.167969 189.125 C 156.429688 189.070312 156.683594 188.996094 156.929688 188.894531 C 157.175781 188.789062 157.410156 188.664062 157.632812 188.519531 C 157.851562 188.371094 158.058594 188.203125 158.246094 188.011719 C 158.433594 187.824219 158.601562 187.621094 158.75 187.398438 C 158.898438 187.175781 159.023438 186.941406 159.125 186.695312 C 159.226562 186.449219 159.304688 186.195312 159.355469 185.9375 C 159.410156 185.675781 159.433594 185.410156 159.433594 185.144531 L 159.433594 173.582031 C 159.433594 173.316406 159.410156 173.054688 159.355469 172.792969 C 159.304688 172.53125 159.226562 172.277344 159.125 172.03125 C 159.023438 171.785156 158.898438 171.550781 158.75 171.328125 C 158.601562 171.105469 158.433594 170.902344 158.246094 170.714844 C 158.058594 170.523438 157.851562 170.355469 157.632812 170.207031 C 157.410156 170.0625 157.175781 169.9375 156.929688 169.832031 C 156.683594 169.730469 156.429688 169.65625 156.167969 169.601562 C 155.90625 169.550781 155.644531 169.523438 155.375 169.527344 Z M 155.375 169.527344 "/><path style=" stroke:none;fill-rule:nonzero;fill:#c2b067;fill-opacity:1;" d="M 130.074219 165.640625 C 129.808594 165.640625 129.546875 165.667969 129.285156 165.71875 C 129.023438 165.773438 128.769531 165.847656 128.523438 165.949219 C 128.277344 166.050781 128.042969 166.175781 127.820312 166.324219 C 127.597656 166.472656 127.394531 166.640625 127.207031 166.832031 C 127.015625 167.019531 126.847656 167.222656 126.699219 167.445312 C 126.554688 167.667969 126.429688 167.902344 126.324219 168.148438 C 126.222656 168.394531 126.148438 168.648438 126.09375 168.910156 C 126.042969 169.167969 126.015625 169.433594 126.019531 169.699219 L 126.019531 181.261719 C 126.019531 181.527344 126.042969 181.792969 126.09375 182.050781 C 126.148438 182.3125 126.222656 182.566406 126.328125 182.8125 C 126.429688 183.058594 126.554688 183.292969 126.703125 183.515625 C 126.847656 183.738281 127.019531 183.941406 127.207031 184.128906 C 127.394531 184.320312 127.597656 184.488281 127.820312 184.636719 C 128.042969 184.78125 128.277344 184.90625 128.523438 185.011719 C 128.769531 185.113281 129.023438 185.1875 129.285156 185.242188 C 129.546875 185.292969 129.808594 185.320312 130.074219 185.320312 C 130.339844 185.320312 130.605469 185.292969 130.867188 185.242188 C 131.128906 185.1875 131.382812 185.113281 131.628906 185.011719 C 131.875 184.90625 132.109375 184.78125 132.328125 184.636719 C 132.550781 184.488281 132.757812 184.320312 132.945312 184.128906 C 133.132812 183.941406 133.300781 183.738281 133.449219 183.515625 C 133.597656 183.292969 133.722656 183.058594 133.824219 182.8125 C 133.925781 182.566406 134.003906 182.3125 134.054688 182.050781 C 134.105469 181.792969 134.132812 181.527344 134.132812 181.261719 L 134.132812 169.699219 C 134.132812 169.433594 134.105469 169.167969 134.054688 168.910156 C 134.003906 168.648438 133.925781 168.394531 133.824219 168.148438 C 133.722656 167.902344 133.597656 167.667969 133.449219 167.445312 C 133.300781 167.222656 133.132812 167.019531 132.945312 166.832031 C 132.757812 166.640625 132.550781 166.472656 132.328125 166.324219 C 132.109375 166.175781 131.875 166.050781 131.628906 165.949219 C 131.382812 165.847656 131.128906 165.773438 130.867188 165.71875 C 130.605469 165.667969 130.34375 165.640625 130.074219 165.640625 Z M 130.074219 165.640625 "/><path style=" stroke:none;fill-rule:nonzero;fill:#c2b067;fill-opacity:1;" d="M 180.679688 212.289062 C 180.410156 212.289062 180.148438 212.316406 179.886719 212.367188 C 179.625 212.421875 179.371094 212.496094 179.125 212.597656 C 178.878906 212.699219 178.644531 212.824219 178.421875 212.972656 C 178.203125 213.121094 177.996094 213.289062 177.808594 213.476562 C 177.621094 213.667969 177.453125 213.871094 177.304688 214.09375 C 177.15625 214.316406 177.03125 214.546875 176.929688 214.796875 C 176.828125 215.042969 176.75 215.292969 176.699219 215.554688 C 176.644531 215.816406 176.621094 216.082031 176.621094 216.347656 L 176.621094 227.910156 C 176.621094 228.175781 176.644531 228.441406 176.695312 228.703125 C 176.746094 228.964844 176.824219 229.21875 176.925781 229.464844 C 177.027344 229.710938 177.152344 229.945312 177.300781 230.167969 C 177.449219 230.390625 177.617188 230.597656 177.804688 230.785156 C 177.992188 230.972656 178.199219 231.144531 178.421875 231.292969 C 178.640625 231.441406 178.875 231.566406 179.121094 231.667969 C 179.371094 231.769531 179.625 231.847656 179.886719 231.898438 C 180.148438 231.953125 180.410156 231.976562 180.679688 231.976562 C 180.945312 231.976562 181.210938 231.953125 181.472656 231.898438 C 181.734375 231.847656 181.988281 231.769531 182.234375 231.667969 C 182.480469 231.566406 182.714844 231.441406 182.9375 231.292969 C 183.15625 231.144531 183.363281 230.972656 183.550781 230.785156 C 183.738281 230.597656 183.90625 230.390625 184.054688 230.167969 C 184.203125 229.945312 184.328125 229.710938 184.429688 229.464844 C 184.53125 229.21875 184.609375 228.964844 184.660156 228.703125 C 184.710938 228.441406 184.738281 228.175781 184.734375 227.910156 L 184.734375 216.347656 C 184.734375 216.082031 184.710938 215.816406 184.65625 215.554688 C 184.605469 215.292969 184.53125 215.042969 184.425781 214.796875 C 184.324219 214.546875 184.199219 214.316406 184.050781 214.09375 C 183.90625 213.871094 183.734375 213.667969 183.546875 213.476562 C 183.359375 213.289062 183.15625 213.121094 182.933594 212.972656 C 182.710938 212.824219 182.476562 212.699219 182.230469 212.597656 C 181.984375 212.496094 181.730469 212.421875 181.46875 212.367188 C 181.207031 212.316406 180.945312 212.289062 180.679688 212.289062 Z M 180.679688 212.289062 "/><path style=" stroke:none;fill-rule:nonzero;fill:#c2b067;fill-opacity:1;" d="M 155.375 208.40625 C 155.109375 208.40625 154.847656 208.433594 154.585938 208.484375 C 154.324219 208.535156 154.070312 208.613281 153.824219 208.714844 C 153.578125 208.816406 153.34375 208.941406 153.121094 209.089844 C 152.902344 209.238281 152.695312 209.40625 152.507812 209.59375 C 152.320312 209.785156 152.152344 209.988281 152.003906 210.210938 C 151.855469 210.429688 151.730469 210.664062 151.628906 210.910156 C 151.527344 211.15625 151.449219 211.410156 151.398438 211.671875 C 151.34375 211.933594 151.320312 212.199219 151.320312 212.464844 L 151.320312 224.027344 C 151.320312 224.292969 151.34375 224.554688 151.398438 224.816406 C 151.449219 225.078125 151.527344 225.332031 151.628906 225.578125 C 151.730469 225.824219 151.855469 226.058594 152.003906 226.28125 C 152.152344 226.5 152.320312 226.707031 152.507812 226.894531 C 152.695312 227.082031 152.902344 227.25 153.121094 227.398438 C 153.34375 227.546875 153.578125 227.671875 153.824219 227.773438 C 154.070312 227.875 154.324219 227.953125 154.585938 228.003906 C 154.847656 228.058594 155.109375 228.082031 155.378906 228.082031 C 155.644531 228.082031 155.90625 228.058594 156.167969 228.003906 C 156.429688 227.953125 156.683594 227.875 156.929688 227.773438 C 157.175781 227.671875 157.410156 227.546875 157.632812 227.398438 C 157.851562 227.25 158.058594 227.082031 158.246094 226.894531 C 158.433594 226.707031 158.601562 226.5 158.75 226.28125 C 158.898438 226.058594 159.023438 225.824219 159.125 225.578125 C 159.226562 225.332031 159.304688 225.078125 159.355469 224.816406 C 159.410156 224.554688 159.433594 224.292969 159.433594 224.027344 L 159.433594 212.464844 C 159.433594 212.199219 159.410156 211.933594 159.355469 211.671875 C 159.304688 211.410156 159.226562 211.15625 159.125 210.910156 C 159.023438 210.664062 158.898438 210.429688 158.75 210.210938 C 158.601562 209.988281 158.433594 209.785156 158.246094 209.59375 C 158.058594 209.40625 157.851562 209.238281 157.632812 209.089844 C 157.410156 208.941406 157.175781 208.816406 156.929688 208.714844 C 156.683594 208.613281 156.429688 208.535156 156.167969 208.484375 C 155.90625 208.433594 155.644531 208.40625 155.375 208.40625 Z M 155.375 208.40625 "/><path style=" stroke:none;fill-rule:nonzero;fill:#c2b067;fill-opacity:1;" d="M 130.074219 204.523438 C 129.808594 204.523438 129.546875 204.550781 129.285156 204.601562 C 129.023438 204.652344 128.769531 204.730469 128.523438 204.832031 C 128.277344 204.933594 128.042969 205.058594 127.820312 205.207031 C 127.597656 205.355469 127.394531 205.523438 127.207031 205.710938 C 127.015625 205.898438 126.847656 206.105469 126.699219 206.328125 C 126.554688 206.546875 126.429688 206.78125 126.324219 207.027344 C 126.222656 207.273438 126.148438 207.527344 126.09375 207.789062 C 126.042969 208.050781 126.015625 208.316406 126.019531 208.582031 L 126.019531 220.140625 C 126.015625 220.410156 126.042969 220.671875 126.09375 220.933594 C 126.148438 221.195312 126.222656 221.449219 126.328125 221.695312 C 126.429688 221.941406 126.554688 222.175781 126.703125 222.398438 C 126.847656 222.617188 127.019531 222.824219 127.207031 223.011719 C 127.394531 223.199219 127.597656 223.367188 127.820312 223.515625 C 128.042969 223.664062 128.277344 223.789062 128.523438 223.890625 C 128.769531 223.992188 129.023438 224.070312 129.285156 224.121094 C 129.546875 224.175781 129.808594 224.199219 130.074219 224.199219 C 130.339844 224.199219 130.605469 224.175781 130.867188 224.121094 C 131.128906 224.070312 131.382812 223.992188 131.628906 223.890625 C 131.875 223.789062 132.109375 223.664062 132.328125 223.515625 C 132.550781 223.367188 132.757812 223.199219 132.945312 223.011719 C 133.132812 222.824219 133.300781 222.617188 133.449219 222.398438 C 133.597656 222.175781 133.722656 221.941406 133.824219 221.695312 C 133.925781 221.449219 134.003906 221.195312 134.054688 220.933594 C 134.105469 220.671875 134.132812 220.410156 134.132812 220.140625 L 134.132812 208.582031 C 134.132812 208.316406 134.105469 208.050781 134.054688 207.789062 C 134.003906 207.527344 133.925781 207.273438 133.824219 207.027344 C 133.722656 206.78125 133.597656 206.546875 133.449219 206.328125 C 133.300781 206.105469 133.132812 205.898438 132.945312 205.710938 C 132.757812 205.523438 132.550781 205.355469 132.328125 205.207031 C 132.109375 205.058594 131.875 204.933594 131.628906 204.832031 C 131.382812 204.730469 131.128906 204.652344 130.867188 204.601562 C 130.605469 204.550781 130.34375 204.523438 130.074219 204.523438 Z M 130.074219 204.523438 "/><g clip-rule="nonzero" clip-path="url(#166937932f)"><g clip-rule="nonzero" clip-path="url(#4ac9b2cf58)"><g transform="matrix(1,0,0,1,30,187)"><g clip-path="url(#44c47fb8cf)"><g clip-rule="nonzero" clip-path="url(#5985a0ff7c)"><g clip-rule="nonzero" clip-path="url(#d70b591997)"><path style=" stroke:none;fill-rule:nonzero;fill:#142725;fill-opacity:1;" d="M 0.863281 0.441406 L 155.082031 0.441406 L 155.082031 71.832031 L 0.863281 71.832031 Z M 0.863281 0.441406 "/></g></g></g></g></g></g><g clip-rule="nonzero" clip-path="url(#72429dd990)"><path style=" stroke:none;fill-rule:nonzero;fill:#aa8b50;fill-opacity:1;" d="M 116.867188 160.996094 L 178.28125 222.410156 L 354.121094 222.410156 L 369.453125 240.621094 L 354.121094 258.832031 L 336.71875 258.832031 L 331.855469 249.097656 L 320.5 249.097656 L 315.632812 258.832031 L 304.722656 258.832031 L 299.855469 249.097656 L 288.652344 249.097656 L 283.785156 258.832031 L 272.945312 258.832031 L 268.082031 249.097656 L 256.726562 249.097656 L 251.859375 258.832031 L 178.355469 258.832031 L 108.019531 188.496094 L 37.316406 258.832031 L 0.894531 258.832031 L 38.867188 220.863281 L 38.867188 184.074219 L 64.300781 184.074219 L 64.300781 195.425781 C 78.824219 180.902344 93.421875 166.304688 107.945312 151.78125 Z M 185.210938 229.339844 L 187.644531 231.773438 L 352.941406 231.773438 L 352.941406 229.339844 Z M 185.210938 229.339844 "/></g><path style=" stroke:none;fill-rule:nonzero;fill:#aa8b50;fill-opacity:1;" d="M 92.242188 227.277344 L 105.585938 227.277344 L 105.585938 240.988281 L 92.242188 240.988281 Z M 110.011719 227.277344 L 123.355469 227.277344 L 123.355469 240.988281 L 110.011719 240.988281 Z M 123.355469 245.042969 L 123.355469 258.757812 L 110.011719 258.757812 L 110.011719 245.042969 Z M 105.585938 258.832031 L 92.242188 258.832031 L 92.242188 245.117188 L 105.585938 245.117188 Z M 105.585938 258.832031 "/><g clip-rule="nonzero" clip-path="url(#87d83090a4)"><g transform="matrix(1,0,0,1,0,222)"><g clip-path="url(#4c4c75eaed)"><g clip-rule="nonzero" clip-path="url(#cf881b4d7a)"><path style=" stroke:none;fill-rule:nonzero;fill:#142725;fill-opacity:1;" d="M -55.363281 0.730469 L 9.511719 0.730469 L 9.511719 47.644531 L -55.363281 47.644531 Z M -55.363281 0.730469 "/></g></g></g></g><path style="fill:none;stroke-width:2;stroke-linecap:butt;stroke-linejoin:miter;stroke:#142725;stroke-opacity:1;stroke-miterlimit:4;" d="M -0.000842544 0.99741 L 56.332494 0.99741 " transform="matrix(0.75,0,0,0.75,196.320944,229.568349)"/><g style="fill:#c2b067;fill-opacity:1;"><g transform="translate(12.786258, 308.496016)"><path style="stroke:none" d="M 12.5 -25.765625 L 23.140625 -0.78125 C 23.242188 -0.550781 23.242188 -0.363281 23.140625 -0.21875 C 23.046875 -0.0703125 22.875 0 22.625 0 L 20.5 0 C 20.3125 0 20.144531 -0.0390625 20 -0.125 C 19.863281 -0.207031 19.765625 -0.335938 19.703125 -0.515625 L 17.828125 -5.109375 L 5.890625 -5.109375 L 4.015625 -0.515625 C 3.867188 -0.171875 3.597656 0 3.203125 0 L 1.09375 0 C 0.832031 0 0.65625 -0.0703125 0.5625 -0.21875 C 0.46875 -0.363281 0.46875 -0.550781 0.5625 -0.78125 L 11.21875 -25.765625 C 11.375 -26.140625 11.585938 -26.328125 11.859375 -26.328125 C 12.128906 -26.328125 12.34375 -26.140625 12.5 -25.765625 Z M 11.859375 -19.703125 L 7.0625 -7.984375 L 16.65625 -7.984375 Z M 11.859375 -19.703125 "/></g></g><g style="fill:#b38f4b;fill-opacity:1;"><g transform="translate(40.735475, 308.496016)"><path style="stroke:none" d="M 5.140625 0 L 3.265625 0 C 2.804688 0 2.578125 -0.226562 2.578125 -0.6875 L 2.578125 -25.234375 C 2.578125 -25.671875 2.664062 -25.988281 2.84375 -26.1875 C 3.019531 -26.382812 3.234375 -26.453125 3.484375 -26.390625 C 3.742188 -26.328125 4.003906 -26.117188 4.265625 -25.765625 L 14.640625 -11.484375 L 25.03125 -25.765625 C 25.289062 -26.117188 25.546875 -26.328125 25.796875 -26.390625 C 26.054688 -26.453125 26.273438 -26.382812 26.453125 -26.1875 C 26.628906 -25.988281 26.71875 -25.671875 26.71875 -25.234375 L 26.71875 -0.6875 C 26.71875 -0.226562 26.488281 0 26.03125 0 L 24.140625 0 C 23.679688 0 23.453125 -0.226562 23.453125 -0.6875 L 23.453125 -18.234375 L 15.125 -6.875 C 14.976562 -6.675781 14.816406 -6.578125 14.640625 -6.578125 C 14.460938 -6.578125 14.300781 -6.675781 14.15625 -6.875 L 5.828125 -18.234375 L 5.828125 -0.6875 C 5.828125 -0.226562 5.597656 0 5.140625 0 Z M 5.140625 0 "/></g></g><g style="fill:#b38f4b;fill-opacity:1;"><g transform="translate(74.260699, 308.496016)"><path style="stroke:none" d="M 10.796875 0 L 3.234375 0 C 2.773438 0 2.546875 -0.226562 2.546875 -0.6875 L 2.546875 -25.0625 C 2.546875 -25.53125 2.773438 -25.765625 3.234375 -25.765625 L 10.203125 -25.765625 C 11.703125 -25.765625 12.976562 -25.59375 14.03125 -25.25 C 15.082031 -24.90625 15.929688 -24.425781 16.578125 -23.8125 C 17.234375 -23.207031 17.703125 -22.488281 17.984375 -21.65625 C 18.273438 -20.832031 18.421875 -19.9375 18.421875 -18.96875 C 18.421875 -17.820312 18.195312 -16.734375 17.75 -15.703125 C 17.300781 -14.679688 16.546875 -13.832031 15.484375 -13.15625 C 16.347656 -12.820312 17.050781 -12.34375 17.59375 -11.71875 C 18.132812 -11.09375 18.535156 -10.398438 18.796875 -9.640625 C 19.054688 -8.878906 19.1875 -8.128906 19.1875 -7.390625 C 19.1875 -6.453125 19.050781 -5.539062 18.78125 -4.65625 C 18.519531 -3.78125 18.070312 -2.988281 17.4375 -2.28125 C 16.8125 -1.570312 15.957031 -1.015625 14.875 -0.609375 C 13.789062 -0.203125 12.429688 0 10.796875 0 Z M 5.828125 -22.6875 L 5.828125 -14.546875 L 11 -14.546875 C 12.113281 -14.546875 12.976562 -14.71875 13.59375 -15.0625 C 14.207031 -15.40625 14.640625 -15.890625 14.890625 -16.515625 C 15.148438 -17.148438 15.28125 -17.894531 15.28125 -18.75 C 15.28125 -19.332031 15.203125 -19.863281 15.046875 -20.34375 C 14.898438 -20.820312 14.640625 -21.238281 14.265625 -21.59375 C 13.890625 -21.945312 13.363281 -22.21875 12.6875 -22.40625 C 12.007812 -22.59375 11.144531 -22.6875 10.09375 -22.6875 Z M 5.828125 -11.71875 L 5.828125 -3.0625 L 10.6875 -3.0625 C 11.8125 -3.0625 12.71875 -3.1875 13.40625 -3.4375 C 14.101562 -3.695312 14.628906 -4.035156 14.984375 -4.453125 C 15.347656 -4.878906 15.585938 -5.359375 15.703125 -5.890625 C 15.828125 -6.429688 15.890625 -6.984375 15.890625 -7.546875 C 15.890625 -8.347656 15.734375 -9.066406 15.421875 -9.703125 C 15.117188 -10.335938 14.613281 -10.832031 13.90625 -11.1875 C 13.195312 -11.539062 12.238281 -11.71875 11.03125 -11.71875 Z M 5.828125 -11.71875 "/></g></g><g style="fill:#b38f4b;fill-opacity:1;"><g transform="translate(99.400265, 308.496016)"><path style="stroke:none" d="M 15.703125 0 L 3.234375 0 C 2.773438 0 2.546875 -0.226562 2.546875 -0.6875 L 2.546875 -25.0625 C 2.546875 -25.53125 2.773438 -25.765625 3.234375 -25.765625 L 15.703125 -25.765625 C 16.160156 -25.765625 16.390625 -25.53125 16.390625 -25.0625 L 16.390625 -23.375 C 16.390625 -22.914062 16.160156 -22.6875 15.703125 -22.6875 L 5.828125 -22.6875 L 5.828125 -11.234375 L 14.359375 -11.234375 C 14.816406 -11.234375 15.046875 -11.003906 15.046875 -10.546875 L 15.046875 -8.921875 C 15.046875 -8.460938 14.816406 -8.234375 14.359375 -8.234375 L 5.828125 -8.234375 L 5.828125 -3.0625 L 15.703125 -3.0625 C 16.160156 -3.0625 16.390625 -2.832031 16.390625 -2.375 L 16.390625 -0.6875 C 16.390625 -0.226562 16.160156 0 15.703125 0 Z M 15.703125 0 "/></g></g><g style="fill:#b38f4b;fill-opacity:1;"><g transform="translate(121.353282, 308.496016)"><path style="stroke:none" d="M 15.640625 -9 L 19.828125 -0.828125 C 19.941406 -0.578125 19.945312 -0.375 19.84375 -0.21875 C 19.75 -0.0703125 19.570312 0 19.3125 0 L 17.078125 0 C 16.710938 0 16.445312 -0.171875 16.28125 -0.515625 L 12.421875 -8.171875 C 12.078125 -8.117188 11.722656 -8.082031 11.359375 -8.0625 C 11.003906 -8.050781 10.632812 -8.046875 10.25 -8.046875 L 5.796875 -8.046875 L 5.796875 -0.6875 C 5.796875 -0.226562 5.566406 0 5.109375 0 L 3.234375 0 C 2.773438 0 2.546875 -0.226562 2.546875 -0.6875 L 2.546875 -25.0625 C 2.546875 -25.53125 2.773438 -25.765625 3.234375 -25.765625 L 10.03125 -25.765625 C 13.519531 -25.765625 16.070312 -25.007812 17.6875 -23.5 C 19.3125 -21.988281 20.125 -19.800781 20.125 -16.9375 C 20.125 -12.957031 18.628906 -10.3125 15.640625 -9 Z M 5.796875 -11.125 L 9.828125 -11.125 C 10.171875 -11.125 10.582031 -11.132812 11.0625 -11.15625 C 11.539062 -11.175781 12.046875 -11.238281 12.578125 -11.34375 C 13.109375 -11.445312 13.628906 -11.617188 14.140625 -11.859375 C 14.660156 -12.097656 15.128906 -12.429688 15.546875 -12.859375 C 15.960938 -13.285156 16.296875 -13.828125 16.546875 -14.484375 C 16.796875 -15.148438 16.921875 -15.960938 16.921875 -16.921875 C 16.921875 -17.867188 16.796875 -18.671875 16.546875 -19.328125 C 16.304688 -19.992188 15.976562 -20.535156 15.5625 -20.953125 C 15.144531 -21.378906 14.679688 -21.707031 14.171875 -21.9375 C 13.671875 -22.175781 13.15625 -22.347656 12.625 -22.453125 C 12.09375 -22.566406 11.582031 -22.632812 11.09375 -22.65625 C 10.601562 -22.675781 10.179688 -22.6875 9.828125 -22.6875 L 5.796875 -22.6875 Z M 5.796875 -11.125 "/></g></g><g style="fill:#b38f4b;fill-opacity:1;"><g transform="translate(147.465585, 308.496016)"><path style="stroke:none" d="M 13.453125 0 L 3.234375 0 C 2.773438 0 2.546875 -0.226562 2.546875 -0.6875 L 2.546875 -25.0625 C 2.546875 -25.53125 2.773438 -25.765625 3.234375 -25.765625 L 5.140625 -25.765625 C 5.597656 -25.765625 5.828125 -25.53125 5.828125 -25.0625 L 5.828125 -3.0625 L 13.453125 -3.0625 C 13.910156 -3.0625 14.140625 -2.832031 14.140625 -2.375 L 14.140625 -0.6875 C 14.140625 -0.226562 13.910156 0 13.453125 0 Z M 13.453125 0 "/></g></g><g style="fill:#b38f4b;fill-opacity:1;"><g transform="translate(166.265595, 308.496016)"><path style="stroke:none" d="M 15.703125 0 L 3.234375 0 C 2.773438 0 2.546875 -0.226562 2.546875 -0.6875 L 2.546875 -25.0625 C 2.546875 -25.53125 2.773438 -25.765625 3.234375 -25.765625 L 15.703125 -25.765625 C 16.160156 -25.765625 16.390625 -25.53125 16.390625 -25.0625 L 16.390625 -23.375 C 16.390625 -22.914062 16.160156 -22.6875 15.703125 -22.6875 L 5.828125 -22.6875 L 5.828125 -11.234375 L 14.359375 -11.234375 C 14.816406 -11.234375 15.046875 -11.003906 15.046875 -10.546875 L 15.046875 -8.921875 C 15.046875 -8.460938 14.816406 -8.234375 14.359375 -8.234375 L 5.828125 -8.234375 L 5.828125 -3.0625 L 15.703125 -3.0625 C 16.160156 -3.0625 16.390625 -2.832031 16.390625 -2.375 L 16.390625 -0.6875 C 16.390625 -0.226562 16.160156 0 15.703125 0 Z M 15.703125 0 "/></g></g><g style="fill:#b38f4b;fill-opacity:1;"><g transform="translate(188.218611, 308.496016)"><path style="stroke:none" d="M 11.453125 0 L 9.546875 0 C 9.085938 0 8.859375 -0.226562 8.859375 -0.6875 L 8.859375 -12.203125 L 0.484375 -24.9375 C 0.328125 -25.15625 0.289062 -25.347656 0.375 -25.515625 C 0.46875 -25.679688 0.648438 -25.765625 0.921875 -25.765625 L 3.328125 -25.765625 C 3.691406 -25.765625 3.960938 -25.613281 4.140625 -25.3125 L 10.5 -15.40625 L 16.859375 -25.3125 C 16.941406 -25.46875 17.054688 -25.582031 17.203125 -25.65625 C 17.359375 -25.726562 17.519531 -25.765625 17.6875 -25.765625 L 20.09375 -25.765625 C 20.375 -25.765625 20.554688 -25.679688 20.640625 -25.515625 C 20.734375 -25.347656 20.703125 -25.15625 20.546875 -24.9375 L 12.140625 -12.21875 L 12.140625 -0.6875 C 12.140625 -0.226562 11.910156 0 11.453125 0 Z M 11.453125 0 "/></g></g><g style="fill:#b38f4b;fill-opacity:1;"><g transform="translate(213.475571, 308.496016)"><path style="stroke:none" d=""/></g></g><g style="fill:#b38f4b;fill-opacity:1;"><g transform="translate(227.54607, 308.496016)"><path style="stroke:none" d="M 5.140625 0 L 3.234375 0 C 2.773438 0 2.546875 -0.226562 2.546875 -0.6875 L 2.546875 -25.0625 C 2.546875 -25.53125 2.773438 -25.765625 3.234375 -25.765625 L 5.140625 -25.765625 C 5.597656 -25.765625 5.828125 -25.53125 5.828125 -25.0625 L 5.828125 -11.265625 L 18.40625 -11.265625 L 18.40625 -25.0625 C 18.40625 -25.53125 18.632812 -25.765625 19.09375 -25.765625 L 21.015625 -25.765625 C 21.472656 -25.765625 21.703125 -25.53125 21.703125 -25.0625 L 21.703125 -0.6875 C 21.703125 -0.226562 21.472656 0 21.015625 0 L 19.09375 0 C 18.632812 0 18.40625 -0.226562 18.40625 -0.6875 L 18.40625 -8.203125 L 5.828125 -8.203125 L 5.828125 -0.6875 C 5.828125 -0.226562 5.597656 0 5.140625 0 Z M 5.140625 0 "/></g></g><g style="fill:#b38f4b;fill-opacity:1;"><g transform="translate(256.023134, 308.496016)"><path style="stroke:none" d="M 14.859375 0.53125 C 13.367188 0.53125 11.953125 0.320312 10.609375 -0.09375 C 9.265625 -0.507812 8.035156 -1.109375 6.921875 -1.890625 C 5.804688 -2.679688 4.835938 -3.628906 4.015625 -4.734375 C 3.203125 -5.847656 2.570312 -7.085938 2.125 -8.453125 C 1.675781 -9.828125 1.453125 -11.300781 1.453125 -12.875 C 1.453125 -14.457031 1.675781 -15.929688 2.125 -17.296875 C 2.570312 -18.671875 3.203125 -19.90625 4.015625 -21 C 4.835938 -22.101562 5.804688 -23.046875 6.921875 -23.828125 C 8.035156 -24.617188 9.265625 -25.226562 10.609375 -25.65625 C 11.953125 -26.082031 13.367188 -26.296875 14.859375 -26.296875 C 16.347656 -26.296875 17.765625 -26.082031 19.109375 -25.65625 C 20.453125 -25.226562 21.679688 -24.617188 22.796875 -23.828125 C 23.921875 -23.046875 24.890625 -22.101562 25.703125 -21 C 26.523438 -19.90625 27.15625 -18.671875 27.59375 -17.296875 C 28.039062 -15.929688 28.265625 -14.457031 28.265625 -12.875 C 28.265625 -11.300781 28.039062 -9.828125 27.59375 -8.453125 C 27.15625 -7.085938 26.523438 -5.847656 25.703125 -4.734375 C 24.890625 -3.628906 23.921875 -2.679688 22.796875 -1.890625 C 21.679688 -1.109375 20.453125 -0.507812 19.109375 -0.09375 C 17.773438 0.320312 16.359375 0.53125 14.859375 0.53125 Z M 14.859375 -2.625 C 16.253906 -2.625 17.5625 -2.867188 18.78125 -3.359375 C 20 -3.859375 21.070312 -4.5625 22 -5.46875 C 22.925781 -6.382812 23.648438 -7.46875 24.171875 -8.71875 C 24.703125 -9.96875 24.96875 -11.351562 24.96875 -12.875 C 24.96875 -14.394531 24.703125 -15.78125 24.171875 -17.03125 C 23.648438 -18.289062 22.925781 -19.375 22 -20.28125 C 21.070312 -21.195312 20 -21.898438 18.78125 -22.390625 C 17.5625 -22.878906 16.253906 -23.125 14.859375 -23.125 C 13.460938 -23.125 12.148438 -22.878906 10.921875 -22.390625 C 9.703125 -21.898438 8.628906 -21.195312 7.703125 -20.28125 C 6.773438 -19.375 6.050781 -18.289062 5.53125 -17.03125 C 5.007812 -15.78125 4.75 -14.394531 4.75 -12.875 C 4.75 -11.363281 5.007812 -9.984375 5.53125 -8.734375 C 6.0625 -7.484375 6.789062 -6.398438 7.71875 -5.484375 C 8.644531 -4.578125 9.71875 -3.875 10.9375 -3.375 C 12.15625 -2.875 13.460938 -2.625 14.859375 -2.625 Z M 14.859375 -2.625 "/></g></g><g style="fill:#b38f4b;fill-opacity:1;"><g transform="translate(290.001167, 308.496016)"><path style="stroke:none" d="M 11.203125 0.53125 C 9.992188 0.53125 8.859375 0.363281 7.796875 0.03125 C 6.734375 -0.300781 5.789062 -0.816406 4.96875 -1.515625 C 4.15625 -2.210938 3.515625 -3.113281 3.046875 -4.21875 C 2.585938 -5.332031 2.359375 -6.660156 2.359375 -8.203125 L 2.359375 -25.0625 C 2.359375 -25.53125 2.585938 -25.765625 3.046875 -25.765625 L 5 -25.765625 C 5.457031 -25.765625 5.6875 -25.53125 5.6875 -25.0625 L 5.6875 -8.5 C 5.6875 -7.019531 5.914062 -5.847656 6.375 -4.984375 C 6.832031 -4.117188 7.472656 -3.5 8.296875 -3.125 C 9.128906 -2.757812 10.097656 -2.578125 11.203125 -2.578125 C 12.328125 -2.578125 13.300781 -2.757812 14.125 -3.125 C 14.957031 -3.5 15.597656 -4.117188 16.046875 -4.984375 C 16.503906 -5.847656 16.734375 -7.019531 16.734375 -8.5 L 16.734375 -25.0625 C 16.734375 -25.53125 16.960938 -25.765625 17.421875 -25.765625 L 19.375 -25.765625 C 19.832031 -25.765625 20.0625 -25.53125 20.0625 -25.0625 L 20.0625 -8.203125 C 20.0625 -6.660156 19.832031 -5.332031 19.375 -4.21875 C 18.914062 -3.113281 18.273438 -2.210938 17.453125 -1.515625 C 16.640625 -0.816406 15.695312 -0.300781 14.625 0.03125 C 13.5625 0.363281 12.421875 0.53125 11.203125 0.53125 Z M 11.203125 0.53125 "/></g></g><g style="fill:#b38f4b;fill-opacity:1;"><g transform="translate(316.650152, 308.496016)"><path style="stroke:none" d="M 9.765625 0.53125 C 8.953125 0.53125 8.140625 0.472656 7.328125 0.359375 C 6.515625 0.253906 5.648438 0.0625 4.734375 -0.21875 C 3.828125 -0.507812 2.835938 -0.898438 1.765625 -1.390625 C 1.347656 -1.597656 1.242188 -1.910156 1.453125 -2.328125 L 2.1875 -3.96875 C 2.394531 -4.375 2.710938 -4.46875 3.140625 -4.25 C 4.472656 -3.53125 5.660156 -3.046875 6.703125 -2.796875 C 7.753906 -2.554688 8.703125 -2.4375 9.546875 -2.4375 C 11.003906 -2.4375 12.164062 -2.75 13.03125 -3.375 C 13.894531 -4 14.328125 -4.878906 14.328125 -6.015625 C 14.328125 -6.679688 14.160156 -7.273438 13.828125 -7.796875 C 13.503906 -8.328125 13.0625 -8.8125 12.5 -9.25 C 11.945312 -9.695312 11.300781 -10.132812 10.5625 -10.5625 C 9.832031 -10.988281 9.054688 -11.429688 8.234375 -11.890625 C 7.429688 -12.347656 6.644531 -12.820312 5.875 -13.3125 C 5.113281 -13.800781 4.425781 -14.347656 3.8125 -14.953125 C 3.207031 -15.566406 2.722656 -16.269531 2.359375 -17.0625 C 1.992188 -17.863281 1.8125 -18.785156 1.8125 -19.828125 C 1.8125 -20.953125 2.007812 -21.921875 2.40625 -22.734375 C 2.8125 -23.546875 3.363281 -24.21875 4.0625 -24.75 C 4.769531 -25.28125 5.570312 -25.671875 6.46875 -25.921875 C 7.375 -26.171875 8.332031 -26.296875 9.34375 -26.296875 C 10.375 -26.296875 11.460938 -26.160156 12.609375 -25.890625 C 13.765625 -25.628906 14.910156 -25.253906 16.046875 -24.765625 C 16.472656 -24.566406 16.585938 -24.257812 16.390625 -23.84375 L 15.71875 -22.21875 C 15.613281 -22.039062 15.484375 -21.914062 15.328125 -21.84375 C 15.179688 -21.78125 15.003906 -21.800781 14.796875 -21.90625 C 13.878906 -22.320312 12.945312 -22.648438 12 -22.890625 C 11.0625 -23.140625 10.171875 -23.265625 9.328125 -23.265625 C 8.578125 -23.265625 7.878906 -23.15625 7.234375 -22.9375 C 6.585938 -22.71875 6.070312 -22.375 5.6875 -21.90625 C 5.300781 -21.4375 5.109375 -20.820312 5.109375 -20.0625 C 5.109375 -19.382812 5.253906 -18.78125 5.546875 -18.25 C 5.835938 -17.71875 6.234375 -17.226562 6.734375 -16.78125 C 7.242188 -16.34375 7.816406 -15.929688 8.453125 -15.546875 C 9.097656 -15.160156 9.78125 -14.773438 10.5 -14.390625 C 11.164062 -14.015625 11.835938 -13.628906 12.515625 -13.234375 C 13.203125 -12.835938 13.847656 -12.410156 14.453125 -11.953125 C 15.066406 -11.492188 15.609375 -10.984375 16.078125 -10.421875 C 16.554688 -9.867188 16.929688 -9.242188 17.203125 -8.546875 C 17.484375 -7.859375 17.625 -7.078125 17.625 -6.203125 C 17.625 -5.085938 17.414062 -4.109375 17 -3.265625 C 16.59375 -2.421875 16.023438 -1.710938 15.296875 -1.140625 C 14.566406 -0.578125 13.726562 -0.160156 12.78125 0.109375 C 11.84375 0.390625 10.835938 0.53125 9.765625 0.53125 Z M 9.765625 0.53125 "/></g></g><g style="fill:#b38f4b;fill-opacity:1;"><g transform="translate(339.82748, 308.496016)"><path style="stroke:none" d="M 15.703125 0 L 3.234375 0 C 2.773438 0 2.546875 -0.226562 2.546875 -0.6875 L 2.546875 -25.0625 C 2.546875 -25.53125 2.773438 -25.765625 3.234375 -25.765625 L 15.703125 -25.765625 C 16.160156 -25.765625 16.390625 -25.53125 16.390625 -25.0625 L 16.390625 -23.375 C 16.390625 -22.914062 16.160156 -22.6875 15.703125 -22.6875 L 5.828125 -22.6875 L 5.828125 -11.234375 L 14.359375 -11.234375 C 14.816406 -11.234375 15.046875 -11.003906 15.046875 -10.546875 L 15.046875 -8.921875 C 15.046875 -8.460938 14.816406 -8.234375 14.359375 -8.234375 L 5.828125 -8.234375 L 5.828125 -3.0625 L 15.703125 -3.0625 C 16.160156 -3.0625 16.390625 -2.832031 16.390625 -2.375 L 16.390625 -0.6875 C 16.390625 -0.226562 16.160156 0 15.703125 0 Z M 15.703125 0 "/></g></g><g style="fill:#b38f4b;fill-opacity:0.4;"><g transform="translate(39.224345, 338.930954)"><path style="stroke:none" d="M 1.1875 -10 L 3.5 -10 L 3.5 -1.890625 L 8.515625 -1.890625 L 8.515625 0 L 1.1875 0 Z M 1.1875 -10 "/></g></g><g style="fill:#b38f4b;fill-opacity:0.4;"><g transform="translate(56.58867, 338.930954)"><path style="stroke:none" d="M 5.640625 0.171875 C 4.203125 0.171875 3.082031 -0.222656 2.28125 -1.015625 C 1.488281 -1.804688 1.09375 -2.9375 1.09375 -4.40625 L 1.09375 -10 L 3.421875 -10 L 3.421875 -4.484375 C 3.421875 -2.691406 4.160156 -1.796875 5.640625 -1.796875 C 6.367188 -1.796875 6.921875 -2.015625 7.296875 -2.453125 C 7.679688 -2.890625 7.875 -3.566406 7.875 -4.484375 L 7.875 -10 L 10.171875 -10 L 10.171875 -4.40625 C 10.171875 -2.9375 9.769531 -1.804688 8.96875 -1.015625 C 8.175781 -0.222656 7.066406 0.171875 5.640625 0.171875 Z M 5.640625 0.171875 "/></g></g><g style="fill:#b38f4b;fill-opacity:0.4;"><g transform="translate(76.583626, 338.930954)"><path style="stroke:none" d="M 7.484375 0 L 5.078125 -3.46875 L 2.703125 0 L 0.046875 0 L 3.75 -5.09375 L 0.234375 -10 L 2.859375 -10 L 5.15625 -6.765625 L 7.421875 -10 L 9.921875 -10 L 6.4375 -5.171875 L 10.171875 0 Z M 7.484375 0 "/></g></g><g style="fill:#b38f4b;fill-opacity:0.4;"><g transform="translate(95.52061, 338.930954)"><path style="stroke:none" d="M 5.640625 0.171875 C 4.203125 0.171875 3.082031 -0.222656 2.28125 -1.015625 C 1.488281 -1.804688 1.09375 -2.9375 1.09375 -4.40625 L 1.09375 -10 L 3.421875 -10 L 3.421875 -4.484375 C 3.421875 -2.691406 4.160156 -1.796875 5.640625 -1.796875 C 6.367188 -1.796875 6.921875 -2.015625 7.296875 -2.453125 C 7.679688 -2.890625 7.875 -3.566406 7.875 -4.484375 L 7.875 -10 L 10.171875 -10 L 10.171875 -4.40625 C 10.171875 -2.9375 9.769531 -1.804688 8.96875 -1.015625 C 8.175781 -0.222656 7.066406 0.171875 5.640625 0.171875 Z M 5.640625 0.171875 "/></g></g><g style="fill:#b38f4b;fill-opacity:0.4;"><g transform="translate(115.515566, 338.930954)"><path style="stroke:none" d="M 7.5625 0 L 5.640625 -2.78125 L 3.5 -2.78125 L 3.5 0 L 1.1875 0 L 1.1875 -10 L 5.515625 -10 C 6.398438 -10 7.171875 -9.851562 7.828125 -9.5625 C 8.484375 -9.269531 8.984375 -8.847656 9.328125 -8.296875 C 9.679688 -7.753906 9.859375 -7.113281 9.859375 -6.375 C 9.859375 -5.632812 9.679688 -4.992188 9.328125 -4.453125 C 8.972656 -3.910156 8.46875 -3.5 7.8125 -3.21875 L 10.046875 0 Z M 7.515625 -6.375 C 7.515625 -6.9375 7.332031 -7.367188 6.96875 -7.671875 C 6.613281 -7.972656 6.085938 -8.125 5.390625 -8.125 L 3.5 -8.125 L 3.5 -4.625 L 5.390625 -4.625 C 6.085938 -4.625 6.613281 -4.773438 6.96875 -5.078125 C 7.332031 -5.390625 7.515625 -5.820312 7.515625 -6.375 Z M 7.515625 -6.375 "/></g></g><g style="fill:#b38f4b;fill-opacity:0.4;"><g transform="translate(134.752786, 338.930954)"><path style="stroke:none" d="M 5.984375 -3.546875 L 5.984375 0 L 3.671875 0 L 3.671875 -3.578125 L -0.203125 -10 L 2.265625 -10 L 4.9375 -5.5625 L 7.609375 -10 L 9.875 -10 Z M 5.984375 -3.546875 "/></g></g><g style="fill:#b38f4b;fill-opacity:0.4;"><g transform="translate(153.146484, 338.930954)"><path style="stroke:none" d=""/></g></g><g style="fill:#b38f4b;fill-opacity:0.4;"><g transform="translate(165.921512, 338.930954)"><path style="stroke:none" d="M 7.78125 -2.140625 L 3.125 -2.140625 L 2.25 0 L -0.125 0 L 4.328125 -10 L 6.625 -10 L 11.09375 0 L 8.65625 0 Z M 7.046875 -3.90625 L 5.46875 -7.734375 L 3.875 -3.90625 Z M 7.046875 -3.90625 "/></g></g><g style="fill:#b38f4b;fill-opacity:0.4;"><g transform="translate(185.601927, 338.930954)"><path style="stroke:none" d="M 5.515625 -10 C 6.398438 -10 7.171875 -9.851562 7.828125 -9.5625 C 8.484375 -9.269531 8.984375 -8.847656 9.328125 -8.296875 C 9.679688 -7.753906 9.859375 -7.113281 9.859375 -6.375 C 9.859375 -5.644531 9.679688 -5.003906 9.328125 -4.453125 C 8.984375 -3.898438 8.484375 -3.476562 7.828125 -3.1875 C 7.171875 -2.90625 6.398438 -2.765625 5.515625 -2.765625 L 3.5 -2.765625 L 3.5 0 L 1.1875 0 L 1.1875 -10 Z M 5.390625 -4.640625 C 6.085938 -4.640625 6.613281 -4.789062 6.96875 -5.09375 C 7.332031 -5.394531 7.515625 -5.820312 7.515625 -6.375 C 7.515625 -6.9375 7.332031 -7.367188 6.96875 -7.671875 C 6.613281 -7.972656 6.085938 -8.125 5.390625 -8.125 L 3.5 -8.125 L 3.5 -4.640625 Z M 5.390625 -4.640625 "/></g></g><g style="fill:#b38f4b;fill-opacity:0.4;"><g transform="translate(204.796254, 338.930954)"><path style="stroke:none" d="M 7.78125 -2.140625 L 3.125 -2.140625 L 2.25 0 L -0.125 0 L 4.328125 -10 L 6.625 -10 L 11.09375 0 L 8.65625 0 Z M 7.046875 -3.90625 L 5.46875 -7.734375 L 3.875 -3.90625 Z M 7.046875 -3.90625 "/></g></g><g style="fill:#b38f4b;fill-opacity:0.4;"><g transform="translate(224.476669, 338.930954)"><path style="stroke:none" d="M 7.5625 0 L 5.640625 -2.78125 L 3.5 -2.78125 L 3.5 0 L 1.1875 0 L 1.1875 -10 L 5.515625 -10 C 6.398438 -10 7.171875 -9.851562 7.828125 -9.5625 C 8.484375 -9.269531 8.984375 -8.847656 9.328125 -8.296875 C 9.679688 -7.753906 9.859375 -7.113281 9.859375 -6.375 C 9.859375 -5.632812 9.679688 -4.992188 9.328125 -4.453125 C 8.972656 -3.910156 8.46875 -3.5 7.8125 -3.21875 L 10.046875 0 Z M 7.515625 -6.375 C 7.515625 -6.9375 7.332031 -7.367188 6.96875 -7.671875 C 6.613281 -7.972656 6.085938 -8.125 5.390625 -8.125 L 3.5 -8.125 L 3.5 -4.625 L 5.390625 -4.625 C 6.085938 -4.625 6.613281 -4.773438 6.96875 -5.078125 C 7.332031 -5.390625 7.515625 -5.820312 7.515625 -6.375 Z M 7.515625 -6.375 "/></g></g><g style="fill:#b38f4b;fill-opacity:0.4;"><g transform="translate(243.713888, 338.930954)"><path style="stroke:none" d="M 3.265625 -8.125 L 0.0625 -8.125 L 0.0625 -10 L 8.78125 -10 L 8.78125 -8.125 L 5.578125 -8.125 L 5.578125 0 L 3.265625 0 Z M 3.265625 -8.125 "/></g></g><g style="fill:#b38f4b;fill-opacity:0.4;"><g transform="translate(261.278371, 338.930954)"><path style="stroke:none" d="M 10.296875 0 L 10.28125 -6 L 7.328125 -1.0625 L 6.296875 -1.0625 L 3.359375 -5.875 L 3.359375 0 L 1.1875 0 L 1.1875 -10 L 3.109375 -10 L 6.84375 -3.78125 L 10.53125 -10 L 12.4375 -10 L 12.46875 0 Z M 10.296875 0 "/></g></g><g style="fill:#b38f4b;fill-opacity:0.4;"><g transform="translate(283.660908, 338.930954)"><path style="stroke:none" d="M 8.9375 -1.859375 L 8.9375 0 L 1.1875 0 L 1.1875 -10 L 8.75 -10 L 8.75 -8.15625 L 3.484375 -8.15625 L 3.484375 -5.96875 L 8.140625 -5.96875 L 8.140625 -4.171875 L 3.484375 -4.171875 L 3.484375 -1.859375 Z M 8.9375 -1.859375 "/></g></g><g style="fill:#b38f4b;fill-opacity:0.4;"><g transform="translate(301.983126, 338.930954)"><path style="stroke:none" d="M 10.359375 -10 L 10.359375 0 L 8.46875 0 L 3.46875 -6.078125 L 3.46875 0 L 1.1875 0 L 1.1875 -10 L 3.109375 -10 L 8.078125 -3.9375 L 8.078125 -10 Z M 10.359375 -10 "/></g></g><g style="fill:#b38f4b;fill-opacity:0.4;"><g transform="translate(322.264001, 338.930954)"><path style="stroke:none" d="M 3.265625 -8.125 L 0.0625 -8.125 L 0.0625 -10 L 8.78125 -10 L 8.78125 -8.125 L 5.578125 -8.125 L 5.578125 0 L 3.265625 0 Z M 3.265625 -8.125 "/></g></g><g style="fill:#b38f4b;fill-opacity:1;"><g transform="translate(39.224345, 338.930954)"><path style="stroke:none" d="M 1.1875 -10 L 3.5 -10 L 3.5 -1.890625 L 8.515625 -1.890625 L 8.515625 0 L 1.1875 0 Z M 1.1875 -10 "/></g></g><g style="fill:#b38f4b;fill-opacity:1;"><g transform="translate(56.58867, 338.930954)"><path style="stroke:none" d="M 5.640625 0.171875 C 4.203125 0.171875 3.082031 -0.222656 2.28125 -1.015625 C 1.488281 -1.804688 1.09375 -2.9375 1.09375 -4.40625 L 1.09375 -10 L 3.421875 -10 L 3.421875 -4.484375 C 3.421875 -2.691406 4.160156 -1.796875 5.640625 -1.796875 C 6.367188 -1.796875 6.921875 -2.015625 7.296875 -2.453125 C 7.679688 -2.890625 7.875 -3.566406 7.875 -4.484375 L 7.875 -10 L 10.171875 -10 L 10.171875 -4.40625 C 10.171875 -2.9375 9.769531 -1.804688 8.96875 -1.015625 C 8.175781 -0.222656 7.066406 0.171875 5.640625 0.171875 Z M 5.640625 0.171875 "/></g></g><g style="fill:#b38f4b;fill-opacity:1;"><g transform="translate(76.583626, 338.930954)"><path style="stroke:none" d="M 7.484375 0 L 5.078125 -3.46875 L 2.703125 0 L 0.046875 0 L 3.75 -5.09375 L 0.234375 -10 L 2.859375 -10 L 5.15625 -6.765625 L 7.421875 -10 L 9.921875 -10 L 6.4375 -5.171875 L 10.171875 0 Z M 7.484375 0 "/></g></g><g style="fill:#b38f4b;fill-opacity:1;"><g transform="translate(95.52061, 338.930954)"><path style="stroke:none" d="M 5.640625 0.171875 C 4.203125 0.171875 3.082031 -0.222656 2.28125 -1.015625 C 1.488281 -1.804688 1.09375 -2.9375 1.09375 -4.40625 L 1.09375 -10 L 3.421875 -10 L 3.421875 -4.484375 C 3.421875 -2.691406 4.160156 -1.796875 5.640625 -1.796875 C 6.367188 -1.796875 6.921875 -2.015625 7.296875 -2.453125 C 7.679688 -2.890625 7.875 -3.566406 7.875 -4.484375 L 7.875 -10 L 10.171875 -10 L 10.171875 -4.40625 C 10.171875 -2.9375 9.769531 -1.804688 8.96875 -1.015625 C 8.175781 -0.222656 7.066406 0.171875 5.640625 0.171875 Z M 5.640625 0.171875 "/></g></g><g style="fill:#b38f4b;fill-opacity:1;"><g transform="translate(115.515566, 338.930954)"><path style="stroke:none" d="M 7.5625 0 L 5.640625 -2.78125 L 3.5 -2.78125 L 3.5 0 L 1.1875 0 L 1.1875 -10 L 5.515625 -10 C 6.398438 -10 7.171875 -9.851562 7.828125 -9.5625 C 8.484375 -9.269531 8.984375 -8.847656 9.328125 -8.296875 C 9.679688 -7.753906 9.859375 -7.113281 9.859375 -6.375 C 9.859375 -5.632812 9.679688 -4.992188 9.328125 -4.453125 C 8.972656 -3.910156 8.46875 -3.5 7.8125 -3.21875 L 10.046875 0 Z M 7.515625 -6.375 C 7.515625 -6.9375 7.332031 -7.367188 6.96875 -7.671875 C 6.613281 -7.972656 6.085938 -8.125 5.390625 -8.125 L 3.5 -8.125 L 3.5 -4.625 L 5.390625 -4.625 C 6.085938 -4.625 6.613281 -4.773438 6.96875 -5.078125 C 7.332031 -5.390625 7.515625 -5.820312 7.515625 -6.375 Z M 7.515625 -6.375 "/></g></g><g style="fill:#b38f4b;fill-opacity:1;"><g transform="translate(134.752786, 338.930954)"><path style="stroke:none" d="M 5.984375 -3.546875 L 5.984375 0 L 3.671875 0 L 3.671875 -3.578125 L -0.203125 -10 L 2.265625 -10 L 4.9375 -5.5625 L 7.609375 -10 L 9.875 -10 Z M 5.984375 -3.546875 "/></g></g><g style="fill:#b38f4b;fill-opacity:1;"><g transform="translate(153.146484, 338.930954)"><path style="stroke:none" d=""/></g></g><g style="fill:#b38f4b;fill-opacity:1;"><g transform="translate(165.921512, 338.930954)"><path style="stroke:none" d="M 7.78125 -2.140625 L 3.125 -2.140625 L 2.25 0 L -0.125 0 L 4.328125 -10 L 6.625 -10 L 11.09375 0 L 8.65625 0 Z M 7.046875 -3.90625 L 5.46875 -7.734375 L 3.875 -3.90625 Z M 7.046875 -3.90625 "/></g></g><g style="fill:#b38f4b;fill-opacity:1;"><g transform="translate(185.601927, 338.930954)"><path style="stroke:none" d="M 5.515625 -10 C 6.398438 -10 7.171875 -9.851562 7.828125 -9.5625 C 8.484375 -9.269531 8.984375 -8.847656 9.328125 -8.296875 C 9.679688 -7.753906 9.859375 -7.113281 9.859375 -6.375 C 9.859375 -5.644531 9.679688 -5.003906 9.328125 -4.453125 C 8.984375 -3.898438 8.484375 -3.476562 7.828125 -3.1875 C 7.171875 -2.90625 6.398438 -2.765625 5.515625 -2.765625 L 3.5 -2.765625 L 3.5 0 L 1.1875 0 L 1.1875 -10 Z M 5.390625 -4.640625 C 6.085938 -4.640625 6.613281 -4.789062 6.96875 -5.09375 C 7.332031 -5.394531 7.515625 -5.820312 7.515625 -6.375 C 7.515625 -6.9375 7.332031 -7.367188 6.96875 -7.671875 C 6.613281 -7.972656 6.085938 -8.125 5.390625 -8.125 L 3.5 -8.125 L 3.5 -4.640625 Z M 5.390625 -4.640625 "/></g></g><g style="fill:#b38f4b;fill-opacity:1;"><g transform="translate(204.796254, 338.930954)"><path style="stroke:none" d="M 7.78125 -2.140625 L 3.125 -2.140625 L 2.25 0 L -0.125 0 L 4.328125 -10 L 6.625 -10 L 11.09375 0 L 8.65625 0 Z M 7.046875 -3.90625 L 5.46875 -7.734375 L 3.875 -3.90625 Z M 7.046875 -3.90625 "/></g></g><g style="fill:#b38f4b;fill-opacity:1;"><g transform="translate(224.476669, 338.930954)"><path style="stroke:none" d="M 7.5625 0 L 5.640625 -2.78125 L 3.5 -2.78125 L 3.5 0 L 1.1875 0 L 1.1875 -10 L 5.515625 -10 C 6.398438 -10 7.171875 -9.851562 7.828125 -9.5625 C 8.484375 -9.269531 8.984375 -8.847656 9.328125 -8.296875 C 9.679688 -7.753906 9.859375 -7.113281 9.859375 -6.375 C 9.859375 -5.632812 9.679688 -4.992188 9.328125 -4.453125 C 8.972656 -3.910156 8.46875 -3.5 7.8125 -3.21875 L 10.046875 0 Z M 7.515625 -6.375 C 7.515625 -6.9375 7.332031 -7.367188 6.96875 -7.671875 C 6.613281 -7.972656 6.085938 -8.125 5.390625 -8.125 L 3.5 -8.125 L 3.5 -4.625 L 5.390625 -4.625 C 6.085938 -4.625 6.613281 -4.773438 6.96875 -5.078125 C 7.332031 -5.390625 7.515625 -5.820312 7.515625 -6.375 Z M 7.515625 -6.375 "/></g></g><g style="fill:#b38f4b;fill-opacity:1;"><g transform="translate(243.713888, 338.930954)"><path style="stroke:none" d="M 3.265625 -8.125 L 0.0625 -8.125 L 0.0625 -10 L 8.78125 -10 L 8.78125 -8.125 L 5.578125 -8.125 L 5.578125 0 L 3.265625 0 Z M 3.265625 -8.125 "/></g></g><g style="fill:#b38f4b;fill-opacity:1;"><g transform="translate(261.278371, 338.930954)"><path style="stroke:none" d="M 10.296875 0 L 10.28125 -6 L 7.328125 -1.0625 L 6.296875 -1.0625 L 3.359375 -5.875 L 3.359375 0 L 1.1875 0 L 1.1875 -10 L 3.109375 -10 L 6.84375 -3.78125 L 10.53125 -10 L 12.4375 -10 L 12.46875 0 Z M 10.296875 0 "/></g></g><g style="fill:#b38f4b;fill-opacity:1;"><g transform="translate(283.660908, 338.930954)"><path style="stroke:none" d="M 8.9375 -1.859375 L 8.9375 0 L 1.1875 0 L 1.1875 -10 L 8.75 -10 L 8.75 -8.15625 L 3.484375 -8.15625 L 3.484375 -5.96875 L 8.140625 -5.96875 L 8.140625 -4.171875 L 3.484375 -4.171875 L 3.484375 -1.859375 Z M 8.9375 -1.859375 "/></g></g><g style="fill:#b38f4b;fill-opacity:1;"><g transform="translate(301.983126, 338.930954)"><path style="stroke:none" d="M 10.359375 -10 L 10.359375 0 L 8.46875 0 L 3.46875 -6.078125 L 3.46875 0 L 1.1875 0 L 1.1875 -10 L 3.109375 -10 L 8.078125 -3.9375 L 8.078125 -10 Z M 10.359375 -10 "/></g></g><g style="fill:#b38f4b;fill-opacity:1;"><g transform="translate(322.264001, 338.930954)"><path style="stroke:none" d="M 3.265625 -8.125 L 0.0625 -8.125 L 0.0625 -10 L 8.78125 -10 L 8.78125 -8.125 L 5.578125 -8.125 L 5.578125 0 L 3.265625 0 Z M 3.265625 -8.125 "/></g></g><g clip-rule="nonzero" clip-path="url(#9a084d1683)"><path style=" stroke:none;fill-rule:nonzero;fill:#c2b067;fill-opacity:1;" d="M 116.867188 160.996094 L 178.28125 222.410156 L 354.121094 222.410156 L 369.453125 240.621094 L 354.121094 258.832031 L 336.71875 258.832031 L 331.855469 249.097656 L 320.5 249.097656 L 315.632812 258.832031 L 304.722656 258.832031 L 299.855469 249.097656 L 288.648438 249.097656 L 283.785156 258.832031 L 272.945312 258.832031 L 268.082031 249.097656 L 256.726562 249.097656 L 251.859375 258.832031 L 178.355469 258.832031 L 108.019531 188.496094 L 37.316406 258.832031 L 0.894531 258.832031 L 38.867188 220.863281 L 38.867188 184.074219 L 64.300781 184.074219 L 64.300781 195.425781 C 78.824219 180.902344 93.421875 166.304688 107.945312 151.78125 Z M 185.210938 229.339844 L 187.644531 231.773438 L 352.941406 231.773438 L 352.941406 229.339844 Z M 185.210938 229.339844 "/></g><g clip-rule="nonzero" clip-path="url(#f164773395)"><path style=" stroke:none;fill-rule:nonzero;fill:#c2b067;fill-opacity:1;" d="M 92.242188 227.277344 L 105.585938 227.277344 L 105.585938 240.988281 L 92.242188 240.988281 Z M 110.011719 227.277344 L 123.355469 227.277344 L 123.355469 240.988281 L 110.011719 240.988281 Z M 123.355469 245.042969 L 123.355469 258.757812 L 110.011719 258.757812 L 110.011719 245.042969 Z M 105.585938 258.832031 L 92.242188 258.832031 L 92.242188 245.117188 L 105.585938 245.117188 Z M 105.585938 258.832031 "/></g></g></svg>